<?xml version="1.0" encoding="utf-8"?>
<!-- Generator: Adobe Illustrator 27.0.0, SVG Export Plug-In . SVG Version: 6.00 Build 0)  -->
<svg version="1.1" id="Layer_1" xmlns="http://www.w3.org/2000/svg" xmlns:xlink="http://www.w3.org/1999/xlink" x="0px" y="0px"
	 viewBox="0 0 341 307.4" style="enable-background:new 0 0 341 307.4;" xml:space="preserve">
<style type="text/css">
	.st0{fill:#FFFFFF;}
</style>
<g>
	<path class="st0" d="M-390.2,125.5c-0.9-1.6-1.7-3-2.6-4.6c2.3-1.4,4.5-2.7,6.6-4c22-13.1,44.6-31,62.5-49.3
		c25.1-25.8,43.6-55.7,54.8-90c4.6-14,8-28.3,10.2-42.8c2.5-16.1,3.7-35.3,3.7-51.6c0-0.8,0-1.6,0-2.6c1.8,0,3.4,0,5.3,0
		c0,1.5-0.1,2.8,0,4.2c0.7,11.9,0.9,26.9,2.1,38.8c2.3,22,7.4,43.5,15.3,64.2c7.8,20.5,18.3,39.5,31.6,56.9
		c13.9,18.2,30,34.2,48.2,48.2c11.7,8.9,25.9,19.4,38.5,26.8c0.5,0.3,1,0.7,1.7,1.1c-0.8,1.5-1.6,2.8-2.5,4.5c-1-0.6-2-1-2.9-1.6
		c-17.8-10.3-38.3-21.2-57.7-27.9c-14.6-5-29.6-8.6-44.8-10.8c-15.2-2.2-30.4-2.7-45.7-1.8c-20.5,1.2-40.5,5.2-60.1,11.6
		c-20.7,6.8-42.7,18.4-61.6,29.2C-388.4,124.5-389.1,124.9-390.2,125.5z"/>
</g>
<path class="st0" d="M172.7,59c0-2.4,0.1-4.8,0.2-7.2h-4.7c0.1,2.4,0.2,4.8,0.2,7.2c0,78.7-47.2,157.5-113.9,189v7.6
	c32.5-23.8,72.6-35.9,116-35.9s83.5,12.1,116,35.9V248C219.8,216.5,172.7,137.6,172.7,59z"/>
</svg>
