<?xml version="1.0" encoding="utf-8"?>
<!-- Generator: Adobe Illustrator 26.3.1, SVG Export Plug-In . SVG Version: 6.00 Build 0)  -->
<svg version="1.1" id="Layer_1" xmlns="http://www.w3.org/2000/svg" xmlns:xlink="http://www.w3.org/1999/xlink" x="0px" y="0px"
	 viewBox="0 0 800 800" style="enable-background:new 0 0 800 800;" xml:space="preserve">
<style type="text/css">
	.st0{fill:#FFFFFF;}
</style>
<g>
	<g>
		<polygon class="st0" points="482.7,474.9 455.2,475.1 473.2,506.6 598,722.7 628.5,722.5 		"/>
		<polygon class="st0" points="431.5,493.5 300.6,725.2 329.4,725.2 446.1,519 		"/>
		<polygon class="st0" points="544.9,474.9 517.5,475.1 535.5,506.6 660.3,722.7 690.7,722.5 		"/>
		<polygon class="st0" points="463.3,547.5 362.9,725.2 391.7,725.2 477.8,573 		"/>
		<polygon class="st0" points="608.7,474.9 581.2,475.1 599.2,506.6 724,722.7 754.5,722.5 		"/>
		<polygon class="st0" points="496.5,603.7 427.9,725.2 456.7,725.2 510.9,629.4 		"/>
	</g>
	<g>
		<polygon class="st0" points="420,407.5 433.6,431.3 452.2,400.1 579.1,185.3 564,158.8 		"/>
		<polygon class="st0" points="461.3,442.9 727.4,443 713.3,417.9 476.4,417.7 		"/>
		<polygon class="st0" points="389.4,353.2 403,377 421.6,345.9 548.5,131 533.4,104.6 		"/>
		<polygon class="st0" points="492.7,388.7 696.8,388.8 682.7,363.7 507.8,363.5 		"/>
		<polygon class="st0" points="358.1,297.7 371.7,321.5 390.3,290.4 517.2,75.5 502.1,49.1 		"/>
		<polygon class="st0" points="525.3,332.1 664.9,332.2 650.7,307.1 540.6,307 		"/>
	</g>
	<g>
		<polygon class="st0" points="395.9,497.9 409.5,474 373.2,473.8 123.7,473.8 108.6,500.3 		"/>
		<polygon class="st0" points="405.4,444.3 270.2,215.1 255.8,240 376,444.1 		"/>
		<polygon class="st0" points="364.7,551.8 378.3,527.9 342,527.8 92.5,527.7 77.4,554.2 		"/>
		<polygon class="st0" points="342.7,444.8 239.1,269 224.7,293.9 313.4,444.6 		"/>
		<polygon class="st0" points="332.9,607 346.4,583.1 310.1,582.9 60.6,582.9 45.5,609.3 		"/>
		<polygon class="st0" points="277.5,445.5 206.6,325.2 192.2,350.2 248,445 		"/>
	</g>
</g>
</svg>
