<?xml version="1.0" encoding="utf-8"?>
<!-- Generator: Adobe Illustrator 27.3.1, SVG Export Plug-In . SVG Version: 6.00 Build 0)  -->
<svg version="1.1" id="Layer_1" xmlns="http://www.w3.org/2000/svg" xmlns:xlink="http://www.w3.org/1999/xlink" x="0px" y="0px"
	 viewBox="0 0 483 114" style="enable-background:new 0 0 483 114;" xml:space="preserve">
<style type="text/css">
	.st0{fill:#FFFFFF;}
	.st1{opacity:0.1;}
</style>
<g>
	<path class="st0" d="M39.7-141.3h19.8L96.8-37H75.4l-7-21.2H29.7l-7,21.2H2.6L39.7-141.3z M35.3-75h27.5L49-116.1L35.3-75z"/>
	<path class="st0" d="M97.3-76c0-23,14.4-40.2,36.7-40.2c23.2,0,36.7,18.6,35.9,45.9h-53.6c0.3,11.5,7.6,19.7,18.2,19.7
		c6.2,0,11.3-2.2,15.1-8.9H169c-4,11.5-14,24.3-34.5,24.3C110.3-35.1,97.3-53.7,97.3-76z M116.4-83.9h34.2
		c-0.4-13.1-8.7-17.7-17.1-17.7C125.9-101.6,117.5-95.7,116.4-83.9z"/>
	<path class="st0" d="M199.2-141.3v18.4h-19v-18.4H199.2z M199.2-114.4V-37h-19v-77.4H199.2z"/>
	<path class="st0" d="M257.2-91.1c-1.4-6.5-7.2-11.1-16.4-11.1c-7.6,0-12.5,2.7-12.5,7.5c0,4.2,2.9,7.2,10.5,8.9l9.9,2.3
		c15.3,3.6,27.8,7.3,27.8,23.3c0,15.5-15.3,25-32.6,25c-18.7,0-32.5-9.8-34.2-27.5H228c1.1,7.5,6.2,13.1,16.5,13.1
		c8.7,0,13.9-3.2,13.9-8.8c0-5.8-5.8-7.9-12.7-9.5l-11-2.4c-14.4-3.2-23.7-9.1-23.7-23.2c0-14,14.3-23,30.8-23
		c16,0,30.7,7.5,33.1,25.3h-17.7V-91.1z"/>
	<path class="st0" d="M282-75.5c0-27.2,17.5-40.6,36.7-40.6s36.7,13.4,36.7,40.6s-17.5,40.4-36.7,40.4S282-48.3,282-75.5z
		 M301.3-75.5c0,16.1,6.5,24.9,17.5,24.9s17.5-8.8,17.5-24.9c0-16.3-6.5-25-17.5-25S301.3-91.8,301.3-75.5z"/>
	<path class="st0" d="M385.2-104.2c4.3-7.8,12.4-11.9,21.5-11.9c17.7,0,25.6,11.4,25.6,30.4V-37h-19v-44.4
		c0-10.1-2.1-18.7-12.8-18.7c-12.5,0-15.3,10.7-15.3,22.9V-37h-19v-77.4h19L385.2-104.2L385.2-104.2z"/>
</g>
<g>
	<path class="st0" d="M441-138.6h-7v-3.8h18.3v3.8h-7v19.5H441V-138.6z M464.5-119.1l-5.9-17.1v17.1h-4.4v-23.3h6.9l5.8,17.4
		l5.6-17.4h6.7v23.3h-4.4v-17.1l-5.8,17.1C469-119.1,464.5-119.1,464.5-119.1z"/>
</g>
<g class="st1">
	<path class="st0" d="M114.3,107.5c-17.9,0-29.5-7.5-35.9-19.1c-7.5,10.9-17.5,19.1-38.4,19.1C21.5,107.5,6.3,97,6.3,79.4
		c0-23.6,27-28.4,62.9-34.7v-2.7c0-14.8-7.9-18.2-18.4-18.2c-10.6,0-18.8,5-19.5,15.6H8.6c1.8-19,18.6-32.9,43.1-32.9
		c13.9,0,25,3.4,31.7,12.5c6.8-7.7,17-12.2,30.2-12.2c30.2,0,47.7,23.1,46.7,57H90.5c0.5,14.3,9.8,24.5,23.6,24.5
		c8,0,14.7-2.7,19.7-11.1h25.4C154,91.6,140.9,107.5,114.3,107.5z M69.9,60l-13.2,2.9c-13.2,2.9-25.4,6.1-25.4,15.6
		c0,7.2,6.3,11.6,15.6,11.6C63,90,69.9,79.6,69.9,64.1V60z M90.7,46.9h44.5c-0.5-16.3-11.3-22-22.2-22C103,24.9,92.3,32.2,90.7,46.9
		z"/>
	<path class="st0" d="M192.5,9v96.2h-24.7V9H192.5z"/>
	<path class="st0" d="M261.6,38c-1.8-8-9.3-13.8-21.3-13.8c-9.8,0-16.3,3.4-16.3,9.3c0,5.2,3.8,8.9,13.6,11.1l12.9,2.9
		c19.9,4.5,36.1,9.1,36.1,29c0,19.3-19.9,31.1-42.4,31.1c-24.3,0-42.2-12.2-44.5-34.2h23.8c1.4,9.3,8,16.3,21.5,16.3
		c11.3,0,18.1-3.9,18.1-10.9c0-7.2-7.5-9.8-16.5-11.8l-14.3-3c-18.8-3.9-30.8-11.3-30.8-28.8c0-17.3,18.6-28.6,40.1-28.6
		c20.7,0,39.9,9.3,43.1,31.5H261.6z"/>
	<path class="st0" d="M287.7,57.3c0-33.8,22.7-50.4,47.7-50.4c25,0,47.7,16.6,47.7,50.4c0,33.8-22.7,50.3-47.7,50.3
		C310.4,107.5,287.7,91.1,287.7,57.3z M312.7,57.3c0,20,8.4,30.9,22.7,30.9s22.7-10.9,22.7-30.9c0-20.2-8.4-31.1-22.7-31.1
		S312.7,37.1,312.7,57.3z"/>
	<path class="st0" d="M415.6,21.7c5.5-9.7,16.1-14.8,27.9-14.8c23.1,0,33.3,14.1,33.3,37.7v60.6H452V49.9c0-12.5-2.7-23.2-16.6-23.2
		c-16.3,0-19.9,13.2-19.9,28.4v50.1h-24.7V9h24.7V21.7z"/>
</g>
</svg>
