<?xml version="1.0" encoding="utf-8"?>
<!-- Generator: Adobe Illustrator 27.5.0, SVG Export Plug-In . SVG Version: 6.00 Build 0)  -->
<svg version="1.1" id="Layer_1" xmlns="http://www.w3.org/2000/svg" xmlns:xlink="http://www.w3.org/1999/xlink" x="0px" y="0px"
	 viewBox="0 0 980 137" style="enable-background:new 0 0 980 137;" xml:space="preserve">
<style type="text/css">
	.st0{fill:#FFFFFF;}
</style>
<g>
	<path class="st0" d="M50.1,16.3h19.8l37.3,104.4H85.8l-7-21.2H40.1l-7,21.2H13L50.1,16.3z M45.7,82.7h27.5L59.4,41.5L45.7,82.7z"/>
	<path class="st0" d="M107.7,81.7c0-23,14.4-40.2,36.7-40.2c23.2,0,36.7,18.6,35.9,45.9h-53.6c0.3,11.5,7.6,19.7,18.2,19.7
		c6.2,0,11.3-2.2,15.1-8.9h19.5c-4,11.5-14,24.3-34.5,24.3C120.7,122.5,107.7,104,107.7,81.7z M126.8,73.8H161
		C160.6,60.7,152.3,56,144,56C136.3,56,127.9,62,126.8,73.8z"/>
	<path class="st0" d="M209.6,16.3v18.4h-19V16.3H209.6z M209.6,43.2v77.4h-19V43.2H209.6z"/>
	<path class="st0" d="M267.6,66.6c-1.4-6.5-7.2-11.1-16.4-11.1c-7.6,0-12.5,2.7-12.5,7.5c0,4.2,2.9,7.2,10.5,8.9l9.9,2.3
		c15.3,3.6,27.8,7.3,27.8,23.3c0,15.5-15.3,25-32.6,25c-18.7,0-32.5-9.8-34.2-27.5h18.3c1.1,7.5,6.2,13.1,16.5,13.1
		c8.7,0,13.9-3.2,13.9-8.8c0-5.8-5.8-7.9-12.7-9.5l-11-2.4c-14.4-3.2-23.7-9.1-23.7-23.2c0-14,14.3-23,30.8-23
		c16,0,30.7,7.5,33.1,25.3H267.6z"/>
	<path class="st0" d="M292.4,82.1c0-27.2,17.5-40.6,36.7-40.6s36.7,13.4,36.7,40.6s-17.5,40.4-36.7,40.4S292.4,109.3,292.4,82.1z
		 M311.7,82.1c0,16.1,6.5,24.9,17.5,24.9s17.5-8.8,17.5-24.9c0-16.3-6.5-25-17.5-25S311.7,65.8,311.7,82.1z"/>
	<path class="st0" d="M395.6,53.5c4.3-7.8,12.4-11.9,21.5-11.9c17.7,0,25.6,11.4,25.6,30.4v48.8h-19V76.2c0-10.1-2.1-18.7-12.8-18.7
		c-12.5,0-15.3,10.7-15.3,22.9v40.3h-19V43.2h19V53.5z"/>
	<path class="st0" d="M519.4,74.9c-16.2-3.3-29.8-12.1-29.8-30.2c0-21,21.3-30.2,39.7-30.2c20.6,0,38.2,12.7,39.2,32.7h-19
		c-1.5-12.2-11.7-16.3-21-16.3c-9.1,0-19.3,3.6-19.3,13c0,7.3,5.9,11.4,13.9,13l13.1,2.4c16.2,3,34.1,9.8,34.1,31.4
		c0,21.4-20.4,32-40.4,32c-24.5,0-40.7-13.8-42.5-36.3h19c2.2,15.3,12.4,19.9,24.2,19.9c8.8,0,19.9-3.3,19.9-14.5
		c0-8.9-7.8-12.2-18.4-14.2L519.4,74.9z"/>
	<path class="st0" d="M585.3,22.2h19v21h15.4v13.7h-15.4v40c0,7.9,2.6,9.5,9.4,9.5h5.8v14.2h-13.9c-16.9,0-20.2-5.5-20.2-20.9V56.9
		h-10.5V43.2h10.5V22.2z"/>
	<path class="st0" d="M674.4,110.5c-4.3,7.8-12.5,12.1-21.6,12.1c-17.7,0-24.9-11.4-24.9-30.4V43.2h19v44.6
		c0,10.4,1.4,18.7,12.1,18.7c12.5,0,15.4-10.8,15.4-23V43.2h19v77.4h-19V110.5z"/>
	<path class="st0" d="M757.5,120.7v-9.8c-4.7,8.5-13.6,11.7-21.3,11.7c-18.2,0-31.8-15.8-31.8-40.6c0-24.3,13.3-40.4,31.8-40.4
		c9.4,0,17.3,4.5,21.3,11.7V16.3h19v104.4H757.5z M758.2,82c0-15.5-6.9-25.2-17.3-25.2c-10.3,0-16.5,10.2-16.5,25.3
		s6.2,25.2,16.5,25.2C751.3,107.3,758.2,97.8,758.2,82z"/>
	<path class="st0" d="M810.3,16.3v18.4h-19V16.3H810.3z M810.3,43.2v77.4h-19V43.2H810.3z"/>
	<path class="st0" d="M821.1,82.1c0-27.2,17.5-40.6,36.7-40.6s36.7,13.4,36.7,40.6s-17.5,40.4-36.7,40.4S821.1,109.3,821.1,82.1z
		 M840.3,82.1c0,16.1,6.5,24.9,17.5,24.9s17.5-8.8,17.5-24.9c0-16.3-6.5-25-17.5-25S840.3,65.8,840.3,82.1z"/>
	<path class="st0" d="M947.8,66.6c-1.4-6.5-7.2-11.1-16.4-11.1c-7.6,0-12.5,2.7-12.5,7.5c0,4.2,2.9,7.2,10.5,8.9l9.9,2.3
		c15.3,3.6,27.8,7.3,27.8,23.3c0,15.5-15.3,25-32.6,25c-18.7,0-32.5-9.8-34.2-27.5h18.3c1.1,7.5,6.2,13.1,16.5,13.1
		c8.7,0,13.9-3.2,13.9-8.8c0-5.8-5.8-7.9-12.7-9.5l-11-2.4c-14.4-3.2-23.7-9.1-23.7-23.2c0-14,14.3-23,30.8-23
		c16,0,30.7,7.5,33.1,25.3H947.8z"/>
</g>
</svg>
