<?xml version="1.0" encoding="utf-8"?>
<!-- Generator: Adobe Illustrator 27.1.1, SVG Export Plug-In . SVG Version: 6.00 Build 0)  -->
<svg version="1.1" id="Layer_1" xmlns="http://www.w3.org/2000/svg" xmlns:xlink="http://www.w3.org/1999/xlink" x="0px" y="0px"
	 viewBox="0 0 483 114" style="enable-background:new 0 0 483 114;" xml:space="preserve">
<style type="text/css">
	.st0{fill:#FFFFFF;}
</style>
<g>
	<path class="st0" d="M40.7,3.7h19.8L97.8,108H76.4l-7-21.2H30.7l-7,21.2H3.6L40.7,3.7z M36.3,70h27.5L50,28.9L36.3,70z"/>
	<path class="st0" d="M98.3,69c0-23,14.4-40.2,36.7-40.2c23.2,0,36.7,18.6,35.9,45.9h-53.6c0.3,11.5,7.6,19.7,18.2,19.7
		c6.2,0,11.3-2.2,15.1-8.9H170c-4,11.5-14,24.3-34.5,24.3C111.3,109.9,98.3,91.3,98.3,69z M117.4,61.1h34.2
		c-0.4-13.1-8.7-17.7-17.1-17.7C126.9,43.4,118.5,49.3,117.4,61.1z"/>
	<path class="st0" d="M200.2,3.7v18.4h-19V3.7H200.2z M200.2,30.6V108h-19V30.6H200.2z"/>
	<path class="st0" d="M258.2,53.9c-1.4-6.5-7.2-11.1-16.4-11.1c-7.6,0-12.5,2.7-12.5,7.5c0,4.2,2.9,7.2,10.5,8.9l9.9,2.3
		c15.3,3.6,27.8,7.3,27.8,23.3c0,15.5-15.3,25-32.6,25c-18.7,0-32.5-9.8-34.2-27.5h18.3c1.1,7.5,6.2,13.1,16.5,13.1
		c8.7,0,13.9-3.2,13.9-8.8c0-5.8-5.8-7.9-12.7-9.5l-11-2.4c-14.4-3.2-23.7-9.1-23.7-23.2c0-14,14.3-23,30.8-23
		c16,0,30.7,7.5,33.1,25.3H258.2z"/>
	<path class="st0" d="M283,69.5c0-27.2,17.5-40.6,36.7-40.6s36.7,13.4,36.7,40.6c0,27.2-17.5,40.4-36.7,40.4S283,96.7,283,69.5z
		 M302.3,69.5c0,16.1,6.5,24.9,17.5,24.9s17.5-8.8,17.5-24.9c0-16.3-6.5-25-17.5-25S302.3,53.2,302.3,69.5z"/>
	<path class="st0" d="M386.2,40.8c4.3-7.8,12.4-11.9,21.5-11.9c17.7,0,25.6,11.4,25.6,30.4V108h-19V63.6c0-10.1-2.1-18.7-12.8-18.7
		c-12.5,0-15.3,10.7-15.3,22.9V108h-19V30.6h19V40.8z"/>
</g>
<g>
	<path class="st0" d="M442,6.4h-7V2.6h18.3v3.8h-7v19.5H442V6.4z M465.5,25.9l-5.9-17.1v17.1h-4.4V2.6h6.9l5.8,17.4l5.6-17.4h6.7
		v23.3h-4.4V8.8l-5.8,17.1H465.5z"/>
</g>
</svg>
